<mxfile host="app.diagrams.net" agent="Mozilla/5.0 (Windows NT 10.0; Win64; x64) AppleWebKit/537.36 (KHTML, like Gecko) Chrome/136.0.0.0 Safari/537.36" version="27.0.8">
  <diagram name="PÃ¡gina-1" id="heVl3WE7WUmaU84UU8dP">
    <mxGraphModel dx="1042" dy="562" grid="1" gridSize="10" guides="1" tooltips="1" connect="1" arrows="1" fold="1" page="1" pageScale="1" pageWidth="827" pageHeight="1169" math="0" shadow="0">
      <root>
        <mxCell id="0" />
        <mxCell id="1" parent="0" />
        <mxCell id="RY8g95uEENvYASDDzVV0-1" value="Alumno" style="shape=rectangle;rounded=1;whiteSpace=wrap;fillColor=#D4E6F1;strokeColor=#000000;" vertex="1" parent="1">
          <mxGeometry x="360" y="160" width="180" height="100" as="geometry" />
        </mxCell>
        <mxCell id="RY8g95uEENvYASDDzVV0-2" value="- nombre: String&#xa;- notas: int[]" style="text;strokeColor=#000000;" vertex="1" parent="RY8g95uEENvYASDDzVV0-1">
          <mxGeometry width="180" height="40" as="geometry" />
        </mxCell>
        <mxCell id="RY8g95uEENvYASDDzVV0-3" value="+ obtenerAprobadas(): int[]" style="text;strokeColor=#000000;" vertex="1" parent="RY8g95uEENvYASDDzVV0-1">
          <mxGeometry width="180" height="30" as="geometry" />
        </mxCell>
        <mxCell id="RY8g95uEENvYASDDzVV0-4" value="+ obtenerReprobadas(): int[]" style="text;strokeColor=#000000;" vertex="1" parent="RY8g95uEENvYASDDzVV0-1">
          <mxGeometry width="180" height="30" as="geometry" />
        </mxCell>
        <mxCell id="RY8g95uEENvYASDDzVV0-5" value="Curso" style="shape=rectangle;rounded=1;whiteSpace=wrap;fillColor=#D5F5E3;strokeColor=#000000;" vertex="1" parent="1">
          <mxGeometry x="610" y="160" width="180" height="100" as="geometry" />
        </mxCell>
        <mxCell id="RY8g95uEENvYASDDzVV0-6" value="- alumnos: Alumno[]" style="text;strokeColor=#000000;" vertex="1" parent="RY8g95uEENvYASDDzVV0-5">
          <mxGeometry width="180" height="40" as="geometry" />
        </mxCell>
        <mxCell id="RY8g95uEENvYASDDzVV0-7" value="+ calcularPromedio(): double" style="text;strokeColor=#000000;" vertex="1" parent="RY8g95uEENvYASDDzVV0-5">
          <mxGeometry width="180" height="30" as="geometry" />
        </mxCell>
        <mxCell id="RY8g95uEENvYASDDzVV0-8" value="+ obtenerAprobados(): Alumno[]" style="text;strokeColor=#000000;" vertex="1" parent="RY8g95uEENvYASDDzVV0-5">
          <mxGeometry width="180" height="30" as="geometry" />
        </mxCell>
        <mxCell id="RY8g95uEENvYASDDzVV0-9" value="InterfazUsuario" style="shape=rectangle;rounded=1;whiteSpace=wrap;fillColor=#FAD7A0;strokeColor=#000000;" vertex="1" parent="1">
          <mxGeometry x="860" y="160" width="180" height="100" as="geometry" />
        </mxCell>
        <mxCell id="RY8g95uEENvYASDDzVV0-10" value="+ ingresarDatos()" style="text;strokeColor=#000000;" vertex="1" parent="RY8g95uEENvYASDDzVV0-9">
          <mxGeometry width="180" height="30" as="geometry" />
        </mxCell>
        <mxCell id="RY8g95uEENvYASDDzVV0-11" value="+ validarEntrada()" style="text;strokeColor=#000000;" vertex="1" parent="RY8g95uEENvYASDDzVV0-9">
          <mxGeometry width="180" height="30" as="geometry" />
        </mxCell>
        <mxCell id="RY8g95uEENvYASDDzVV0-12" value="+ mostrarMenu()" style="text;strokeColor=#000000;" vertex="1" parent="RY8g95uEENvYASDDzVV0-9">
          <mxGeometry width="180" height="30" as="geometry" />
        </mxCell>
        <mxCell id="RY8g95uEENvYASDDzVV0-13" style="edgeStyle=orthogonalEdgeStyle;strokeColor=#000000;" edge="1" parent="1" source="RY8g95uEENvYASDDzVV0-5" target="RY8g95uEENvYASDDzVV0-1">
          <mxGeometry relative="1" as="geometry" />
        </mxCell>
        <mxCell id="RY8g95uEENvYASDDzVV0-14" style="edgeStyle=orthogonalEdgeStyle;strokeColor=#000000;" edge="1" parent="1" source="RY8g95uEENvYASDDzVV0-9" target="RY8g95uEENvYASDDzVV0-5">
          <mxGeometry relative="1" as="geometry" />
        </mxCell>
      </root>
    </mxGraphModel>
  </diagram>
</mxfile>
